<svg width="41" height="41" viewBox="0 0 41 41" fill="none" xmlns="http://www.w3.org/2000/svg">
<path d="M35.0037 30.3034C35.2154 29.1794 35.21 28.0253 34.9877 26.9034L38.041 19.5348C38.0413 19.5299 38.0413 19.525 38.041 19.5201C38.5358 18.1655 39.2609 16.9066 40.1843 15.7988C40.4141 15.5561 40.5065 15.2142 40.4303 14.8888L39.1783 9.48216C39.1634 9.42564 39.141 9.37138 39.1117 9.32083C39.1063 9.31083 39.1043 9.29883 39.099 9.28949C39.0937 9.28016 39.0703 9.25749 39.057 9.24016C39.0297 9.20022 38.9982 9.16334 38.963 9.13016C38.9398 9.11385 38.9155 9.09915 38.8903 9.08616C38.8578 9.06224 38.8233 9.04126 38.787 9.0235C38.7368 9.00451 38.6844 8.99175 38.631 8.9855C38.6157 8.9855 38.6023 8.9755 38.587 8.97416C38.4592 8.96565 38.3317 8.99412 38.2197 9.05616C38.2097 9.0615 38.1977 9.0635 38.1877 9.0695H38.181L33.4737 12.0075C33.1886 12.184 33.0117 12.4923 33.003 12.8275C32.8723 14.2669 32.4931 15.6728 31.8824 16.9828V16.9901L30.3564 20.6788C29.6074 20.2806 28.8056 19.9911 27.9751 19.8188C28.2895 17.6488 28.4051 15.4546 28.3204 13.2635C29.5614 11.7745 30.157 9.85193 29.9751 7.92217C29.5584 4.03686 26.0471 1.23088 25.8971 1.11288C25.6716 0.935341 25.3579 0.921989 25.1182 1.07973C24.8785 1.23747 24.7666 1.53091 24.8404 1.80821C25.1838 3.09753 24.8864 4.45819 22.3504 7.25617C21.211 8.35636 20.8499 10.0362 21.4364 11.5075C21.6607 12.0702 21.982 12.5892 22.3858 13.0408C22.2244 14.0708 22.0978 15.0462 22.0104 15.9962C21.8601 17.5674 21.8213 19.1474 21.8944 20.7241C21.2997 21.0466 20.7429 21.4345 20.2345 21.8808L17.0011 8.05417C17.0011 8.04017 16.9878 8.03017 16.9838 8.0175C16.973 7.97305 16.9573 7.92991 16.9371 7.88884L13.6345 1.78954C13.304 1.17906 12.6057 0.865352 11.9298 1.02366C11.2539 1.18197 10.7676 1.77311 10.7425 2.46687L10.4918 9.39683C10.492 9.44684 10.4976 9.49669 10.5085 9.54549C10.5085 9.55616 10.5085 9.56549 10.5085 9.57549L13.8072 23.6534C13.2868 23.6764 12.7702 23.7535 12.2658 23.8834L8.63719 15.1202C8.34622 14.4503 7.57449 14.1342 6.8972 14.4075L1.35124 16.7035C0.672486 16.9868 0.349923 17.7651 0.629241 18.4455L5.55054 30.3174C2.66623 30.4688 0.427358 32.8901 0.501804 35.7774C0.57625 38.6647 2.93693 40.9674 5.82521 40.97H35.1584C37.0638 40.9424 38.8097 39.9003 39.7385 38.2364C40.6672 36.5724 40.6378 34.5394 39.6611 32.9031C38.6845 31.2668 36.9091 30.2758 35.0037 30.3034ZM34.3244 13.0475L37.119 11.3035L36.1297 13.6928C35.9887 14.033 36.1502 14.4231 36.4904 14.5642C36.8306 14.7052 37.2207 14.5437 37.3617 14.2035L38.351 11.8142L39.0917 15.0228C38.2992 15.9896 37.6483 17.0641 37.1584 18.2141C36.4633 18.5363 35.6652 18.553 34.9572 18.2602C34.2493 17.9674 33.6961 17.3918 33.4317 16.6728C33.8999 15.5129 34.2005 14.2922 34.3244 13.0475ZM32.791 18.2815C33.2321 18.8207 33.8044 19.2374 34.453 19.4915C34.9686 19.7132 35.5231 19.8302 36.0844 19.8355C36.2194 19.835 36.3543 19.8267 36.4884 19.8108L34.361 24.9441C33.724 23.5396 32.7386 22.3213 31.4984 21.4048L32.791 18.2815ZM23.6578 13.5202L27.0071 13.7248C27.0277 14.3475 27.0204 14.9915 26.9997 15.6455C25.884 15.7252 24.7627 15.671 23.6598 15.4842C23.5758 15.4722 23.4938 15.4628 23.4104 15.4515C23.4771 14.8235 23.5584 14.1875 23.6564 13.5202H23.6578ZM23.3398 8.1515C25.1098 6.19885 26.0271 4.69686 26.2404 3.28486C27.5127 4.59389 28.3525 6.26188 28.6464 8.0635C28.7864 9.63189 28.3015 11.1921 27.2971 12.4048C25.9802 12.3248 24.6778 12.2448 23.3898 12.1648C22.8363 11.6475 22.518 10.9266 22.5083 10.1691C22.4986 9.41156 22.7984 8.68286 23.3384 8.1515H23.3398ZM23.2891 16.7801L23.4824 16.8055C24.3415 16.9383 25.2086 17.0121 26.0778 17.0261C26.3538 17.0261 26.6444 17.0041 26.9357 16.9815C26.8751 17.8395 26.7757 18.7355 26.6497 19.6615C26.4851 19.6528 26.3238 19.6368 26.1584 19.6368C25.1519 19.6386 24.1529 19.8106 23.2038 20.1455C23.173 19.023 23.2011 17.8997 23.2878 16.7801H23.2891ZM18.1325 24.5761L16.2251 16.4515C16.136 16.099 15.7808 15.883 15.4268 15.9659C15.0728 16.0488 14.8505 16.4001 14.9272 16.7555L16.6411 24.0681C16.1699 23.8996 15.6831 23.7783 15.1878 23.7061L12.2618 11.2195C12.6717 11.4061 13.1168 11.503 13.5672 11.5035C13.6092 11.5035 13.6538 11.4975 13.6965 11.4955L14.1678 13.5082C14.2186 13.7437 14.3926 13.9336 14.6229 14.0047C14.8531 14.0758 15.1038 14.017 15.2786 13.8511C15.4533 13.6851 15.5249 13.4378 15.4658 13.2042L14.9938 11.1902C15.4461 10.9899 15.8451 10.6862 16.1585 10.3035L19.1331 23.0228C18.7468 23.5046 18.4115 24.0252 18.1325 24.5761ZM14.0592 10.1095C13.2066 10.2748 12.336 9.92627 11.8332 9.21816L11.9178 6.87018C12.1498 6.9135 12.3852 6.93581 12.6212 6.93684C12.8491 6.9378 13.0764 6.91252 13.2985 6.86151C13.7482 6.7434 14.1689 6.53419 14.5345 6.24685L15.6572 8.31883C15.5234 9.17851 14.898 9.87986 14.0592 10.1108V10.1095ZM12.2332 2.32154C12.324 2.3005 12.4177 2.34246 12.4625 2.4242L13.8918 5.06752C13.634 5.30078 13.3261 5.47183 12.9918 5.56752C12.6502 5.63023 12.2987 5.61358 11.9645 5.51885L12.0732 2.51487C12.0768 2.42171 12.1423 2.34252 12.2332 2.32154ZM7.40853 15.6368L7.91786 16.8675L5.45121 17.8888C5.15879 18.0116 4.99336 18.3234 5.05566 18.6344C5.11795 18.9454 5.39072 19.1694 5.70788 19.1701C5.79547 19.1699 5.88218 19.1527 5.96321 19.1195L8.42986 18.0975L8.93986 19.3295L7.70586 19.8408C7.41177 19.9625 7.24472 20.2751 7.30702 20.5873C7.36932 20.8994 7.64357 21.124 7.96186 21.1235C8.04922 21.1231 8.1357 21.1059 8.21653 21.0728L9.45052 20.5615L9.96052 21.7935L7.49187 22.8168C7.19777 22.9385 7.03073 23.2511 7.09302 23.5633C7.15532 23.8754 7.42958 24.0999 7.74786 24.0994C7.83523 24.0992 7.92172 24.082 8.00253 24.0488L10.4692 23.0274L11.0085 24.3294C8.83612 25.321 7.24313 27.2599 6.69187 29.5834L1.8599 17.9328L7.40853 15.6368ZM35.1584 39.6367H5.82521C3.61608 39.6367 1.82523 37.8458 1.82523 35.6367C1.82523 33.4276 3.61608 31.6367 5.82521 31.6367C6.21149 31.6354 6.59585 31.6911 6.96587 31.8021C7.16576 31.8624 7.3824 31.8257 7.55118 31.7027C7.71996 31.5798 7.82138 31.3848 7.8252 31.1761C7.87262 28.8001 9.24612 26.6507 11.3823 25.6094C13.5184 24.5682 16.0577 24.8104 17.9585 26.2368C18.1264 26.3618 18.3434 26.4006 18.5443 26.3416C18.7452 26.2827 18.9067 26.1327 18.9805 25.9368C20.2829 22.4656 23.8827 20.4238 27.5303 21.0872C31.178 21.7507 33.8283 24.9292 33.825 28.6367C33.8263 29.3992 33.7128 30.1574 33.4884 30.8861C33.4183 31.1128 33.474 31.3596 33.6346 31.5342C33.7953 31.7089 34.0366 31.785 34.2684 31.7341C34.5607 31.6697 34.8591 31.6371 35.1584 31.6367C37.3675 31.6367 39.1583 33.4276 39.1583 35.6367C39.1583 37.8458 37.3675 39.6367 35.1584 39.6367Z" fill="#FF6881"/>
<path d="M26.2828 11.4362C26.492 11.437 26.6895 11.3395 26.8161 11.1728C27.6484 10.0463 27.9701 8.62237 27.7028 7.2475C27.6459 7.01242 27.4662 6.82657 27.2331 6.76186C27.0001 6.69716 26.7503 6.76375 26.5804 6.93587C26.4105 7.10799 26.3471 7.35864 26.4148 7.59083C26.5744 8.56778 26.3362 9.56797 25.7535 10.3682C25.6019 10.5702 25.5776 10.8404 25.6905 11.0663C25.8034 11.2922 26.0343 11.4348 26.2868 11.4348L26.2828 11.4362Z" fill="#FF6881"/>
<path d="M25.4052 31.6362C24.9094 31.6378 24.4205 31.7517 23.9752 31.9696C22.7759 30.3285 20.5366 29.8478 18.7695 30.852C17.0023 31.8562 16.2692 34.026 17.0652 35.8962C17.17 36.142 17.4114 36.3016 17.6786 36.3015C17.7684 36.3018 17.8573 36.2836 17.9399 36.2482C18.1026 36.1789 18.231 36.0478 18.2971 35.8838C18.3631 35.7198 18.3612 35.5362 18.2919 35.3735C18.1468 35.0353 18.0719 34.671 18.0719 34.3029C18.0719 32.8301 19.2658 31.6362 20.7385 31.6362C21.7729 31.6311 22.715 32.2305 23.1485 33.1696C23.163 33.1913 23.1785 33.2122 23.1952 33.2322C23.2057 33.2551 23.2175 33.2773 23.2305 33.2989C23.2425 33.3136 23.2599 33.3202 23.2732 33.3342C23.3045 33.3667 23.3391 33.3957 23.3765 33.4209C23.4098 33.4465 23.4456 33.4689 23.4832 33.4876C23.5219 33.5038 23.5621 33.5163 23.6032 33.5249C23.6442 33.5357 23.6862 33.5421 23.7285 33.5442C23.8151 33.5435 23.9011 33.5291 23.9832 33.5016C24.001 33.4983 24.0185 33.4941 24.0359 33.4889C24.0575 33.4749 24.0782 33.4595 24.0979 33.4429C24.1219 33.4322 24.1452 33.4202 24.1679 33.4069C24.518 33.1237 24.9548 32.9693 25.4052 32.9696C26.1847 32.9708 26.8924 33.4249 27.2185 34.1329C27.3713 34.4679 27.7668 34.6157 28.1018 34.4629C28.4369 34.3101 28.5846 33.9146 28.4318 33.5796C27.889 32.3963 26.707 31.6374 25.4052 31.6362Z" fill="#FF6881"/>
<path d="M12.2812 27.0037C12.1805 27.0364 9.8252 27.851 9.8252 30.303C9.8252 30.6712 10.1237 30.9697 10.4919 30.9697C10.86 30.9697 11.1585 30.6712 11.1585 30.303C11.2129 29.373 11.8248 28.5685 12.7065 28.2677C13.0563 28.1502 13.2446 27.7715 13.1272 27.4217C13.0097 27.0719 12.631 26.8836 12.2812 27.001V27.0037Z" fill="#FF6881"/>
<path d="M21.662 26.284C21.715 26.2974 21.7694 26.3041 21.824 26.304C22.1296 26.3036 22.3958 26.0957 22.47 25.7993C22.7769 24.5544 23.8789 23.6689 25.1607 23.6373C25.5289 23.6364 25.8266 23.3372 25.8257 22.969C25.8247 22.6008 25.5255 22.3031 25.1573 22.304C23.2625 22.3291 21.625 23.6339 21.1774 25.4753C21.0879 25.8324 21.3049 26.1945 21.662 26.284Z" fill="#FF6881"/>
</svg>
