<svg width="41" height="41" viewBox="0 0 41 41" fill="none" xmlns="http://www.w3.org/2000/svg">
<path d="M11.2003 26.1445C11.5738 25.9291 11.7017 25.4509 11.4863 25.0773C11.2705 24.7041 10.7926 24.5759 10.4191 24.7914C10.0455 25.0071 9.91734 25.4853 10.1331 25.8586C10.3486 26.2321 10.8268 26.3603 11.2003 26.1445Z" fill="#BB0064"/>
<path d="M7.99877 31.5368L11.9331 38.3517C12.7821 39.8238 14.6919 40.3689 16.2022 39.4958C17.6966 38.6321 18.2103 36.7226 17.3457 35.227L15.0019 31.1669L17.0317 29.995C17.4052 29.779 17.5334 29.3014 17.3176 28.9278L16.3017 27.1682C16.4228 27.1447 17.2194 26.9884 31.2657 24.233C33.0021 24.1387 34.0425 22.2396 33.1654 20.7213L30.569 16.2243L32.2282 13.7111C32.3912 13.464 32.4009 13.1463 32.2529 12.8899L30.6904 10.1836C30.5424 9.92725 30.2613 9.7771 29.9668 9.79449L26.9612 9.97485L24.0788 4.98218C23.6613 4.25891 22.9133 3.82098 22.0784 3.81061C22.0683 3.8103 22.0585 3.8103 22.0485 3.8103C21.2416 3.8103 20.5091 4.21191 20.0752 4.89093L9.8695 17.8921L3.23467 21.7226C0.62511 23.2287 -0.278821 26.5764 1.23302 29.193C2.61425 31.5856 5.52623 32.5268 7.99877 31.5368ZM15.9928 36.0085C16.4244 36.755 16.1689 37.7102 15.4203 38.1426C14.6693 38.5769 13.7129 38.3101 13.2862 37.5707L9.37999 30.804L12.0863 29.2415C16.6072 37.073 15.9202 35.8831 15.9928 36.0085ZM14.2207 29.8134L13.4394 28.4603L14.7926 27.679L15.5738 29.0322L14.2207 29.8134ZM29.5787 11.383L30.6584 13.2531L29.6955 14.7112L27.8346 11.4876L29.5787 11.383ZM21.3819 5.74756C21.5916 5.40454 21.9242 5.36914 22.0591 5.3728C22.1925 5.37433 22.5248 5.41583 22.7253 5.76312L31.8122 21.5026C32.1083 22.015 31.7485 22.6592 31.1549 22.6739C31.0484 22.6763 30.9993 22.6955 30.7264 22.7465L21.1143 6.09759C21.316 5.8382 21.342 5.81317 21.3819 5.74756ZM20.0746 7.42206L29.1056 23.0645L15.4759 25.7378L11.3316 18.5598L20.0746 7.42206ZM2.58617 28.4118C2.24315 27.8182 2.06188 27.1444 2.06188 26.4626C2.06188 25.0692 2.81078 23.7716 4.01592 23.0758L10.1051 19.5601L14.0113 26.3259L7.92217 29.8418C6.05663 30.9185 3.66313 30.277 2.58617 28.4118Z" fill="#BB0064"/>
<path d="M8.77995 26.64C8.56419 26.2665 8.08629 26.1383 7.71275 26.3541L6.3596 27.1353C5.98668 27.3508 5.50786 27.2223 5.2924 26.8494C5.07664 26.4758 4.59874 26.3477 4.2252 26.5634C3.85167 26.7792 3.7235 27.2571 3.93925 27.6306C4.58226 28.7445 6.01659 29.1373 7.14085 28.4885L8.494 27.7072C8.86754 27.4915 8.99571 27.0139 8.77995 26.64Z" fill="#BB0064"/>
<path d="M39.3388 5.48141L34.9855 7.90389C34.6086 8.11385 34.4728 8.58962 34.6828 8.96651C34.8921 9.3431 35.3676 9.47951 35.7454 9.26925L40.0984 6.84676C40.4756 6.6368 40.6111 6.16103 40.4011 5.78414C40.1915 5.40694 39.7157 5.27144 39.3388 5.48141Z" fill="#BB0064"/>
<path d="M38.8822 13.5726L35.8637 12.7639C35.4469 12.6522 35.0184 12.8994 34.9067 13.3163C34.795 13.7332 35.0425 14.1613 35.4594 14.273L38.4782 15.0817C38.8975 15.1943 39.3238 14.9432 39.4349 14.5294C39.5466 14.1125 39.2991 13.684 38.8822 13.5726Z" fill="#BB0064"/>
<path d="M31.2969 2.64292L30.4873 5.66172C30.3756 6.07859 30.6228 6.50675 31.0396 6.61875C31.4562 6.73014 31.8847 6.48356 31.9967 6.06638L32.806 3.04758C32.9177 2.63071 32.6705 2.20225 32.2536 2.09055C31.8371 1.97886 31.4086 2.22605 31.2969 2.64292Z" fill="#BB0064"/>
</svg>
