<svg width="41" height="41" viewBox="0 0 41 41" fill="none" xmlns="http://www.w3.org/2000/svg">
<path d="M36.4999 22.97V21.6366C36.8679 21.6366 37.1666 21.3382 37.1666 20.97V16.97C37.1666 16.6017 36.8679 16.3033 36.4999 16.3033H32.8999L32.7708 15.8025C32.476 14.6572 32.0182 13.5601 31.4106 12.5452L31.144 12.0991L33.6999 9.5387C33.9572 9.28089 33.9572 8.86318 33.6999 8.60537L30.8687 5.76996C30.6072 5.52074 30.1966 5.52074 29.9351 5.76996L27.3744 8.33063L26.9286 8.06396C25.9122 7.45615 24.814 6.99834 23.6671 6.70329L23.1666 6.57308V2.96997C23.1666 2.60174 22.8682 2.3033 22.5 2.3033H18.5C18.1317 2.3033 17.8333 2.60174 17.8333 2.96997V6.56996L17.3325 6.69938C16.1872 6.99391 15.0901 7.45173 14.0747 8.0585L13.6286 8.32542L11.0687 5.76996C10.807 5.51866 10.3937 5.51866 10.132 5.76996L7.29999 8.6012C7.17551 8.72542 7.10546 8.89417 7.10546 9.06995C7.10546 9.24599 7.17551 9.41448 7.29999 9.5387L9.86066 12.0991L9.594 12.5452C8.98671 13.5601 8.52863 14.6572 8.2341 15.8025L8.10337 16.3033H4.5C4.13177 16.3033 3.83333 16.6017 3.83333 16.97V20.97C3.83333 21.3382 4.13177 21.6366 4.5 21.6366V22.97C3.39557 22.97 2.5 22.0744 2.5 20.97V16.97C2.5 15.8655 3.39557 14.97 4.5 14.97H7.07942C7.35442 14.0481 7.72629 13.158 8.18879 12.3148L6.35546 10.4814C5.98046 10.1072 5.76978 9.59938 5.76978 9.06995C5.76978 8.54053 5.98046 8.03271 6.35546 7.65876L9.18879 4.82543C9.97811 4.06996 11.2226 4.06996 12.012 4.82543L13.8448 6.65798C14.688 6.19574 15.5784 5.82465 16.5 5.54991V2.96997C16.5 1.86554 17.3955 0.969971 18.5 0.969971H22.5C23.6044 0.969971 24.5 1.86554 24.5 2.96997V5.54991C25.4218 5.82465 26.3117 6.19652 27.1552 6.65876L28.9885 4.82543C29.7781 4.06996 31.0223 4.06996 31.8119 4.82543L34.6447 7.65798C35.0195 8.03219 35.2299 8.53948 35.2299 9.06917C35.2299 9.59886 35.0195 10.1067 34.6447 10.4806L32.8114 12.314C33.2736 13.1577 33.6452 14.0481 33.9205 14.97H36.4999C37.6044 14.97 38.4999 15.8655 38.4999 16.97V20.97C38.4999 22.0744 37.6044 22.97 36.4999 22.97Z" fill="#1B75E8"/>
<path d="M29.8336 18.9693H28.5003C28.5003 14.5511 24.9185 10.9693 20.5003 10.9693C16.0821 10.9693 12.5003 14.5511 12.5003 18.9693H11.167C11.167 13.8147 15.3456 9.63599 20.5003 9.63599C25.6547 9.63599 29.8336 13.8147 29.8336 18.9693Z" fill="#1B75E8"/>
<path d="M20.5 24.304C18.2909 24.304 16.5 22.5128 16.5 20.304C16.5 18.0949 18.2909 16.304 20.5 16.304C22.7094 16.304 24.5 18.0949 24.5 20.304C24.4976 22.5123 22.7083 24.3016 20.5 24.304ZM20.5 17.6373C19.0273 17.6373 17.8333 18.8313 17.8333 20.304C17.8333 21.7766 19.0273 22.9706 20.5 22.9706C21.9726 22.9706 23.1667 21.7766 23.1667 20.304C23.1667 18.8313 21.9726 17.6373 20.5 17.6373Z" fill="#1B75E8"/>
<path d="M31.833 26.97C29.6239 26.97 27.833 25.1788 27.833 22.97C27.833 20.7609 29.6239 18.97 31.833 18.97C34.0421 18.97 35.833 20.7609 35.833 22.97C35.8306 25.1783 34.0413 26.9676 31.833 26.97ZM31.833 20.3033C30.3603 20.3033 29.1663 21.4973 29.1663 22.97C29.1663 24.4426 30.3603 25.6367 31.833 25.6367C33.3057 25.6367 34.4997 24.4426 34.4997 22.97C34.4997 21.4973 33.3057 20.3033 31.833 20.3033Z" fill="#1B75E8"/>
<path d="M9.16698 26.97C6.95787 26.97 5.16699 25.1788 5.16699 22.97C5.16699 20.7609 6.95787 18.97 9.16698 18.97C11.3764 18.97 13.167 20.7609 13.167 22.97C13.1646 25.1783 11.3753 26.9676 9.16698 26.97ZM9.16698 20.3033C7.69433 20.3033 6.50032 21.4973 6.50032 22.97C6.50032 24.4426 7.69433 25.6367 9.16698 25.6367C10.6396 25.6367 11.8336 24.4426 11.8336 22.97C11.8336 21.4973 10.6396 20.3033 9.16698 20.3033Z" fill="#1B75E8"/>
<path d="M37.877 28.6803C36.8835 27.9975 35.7057 27.6332 34.4999 27.6366H29.1666C28.8424 27.6395 28.5187 27.6689 28.1992 27.7244C27.7726 27.0572 27.2177 26.4817 26.5666 26.0304C26.469 25.9567 26.3664 25.8897 26.2593 25.8306C25.3268 25.2658 24.2567 24.9684 23.1666 24.9699H17.8333C15.7945 24.9626 13.8948 26.003 12.8026 27.7244C12.4823 27.6689 12.158 27.6395 11.8333 27.6366H6.49999C5.2953 27.6332 4.1177 27.997 3.12473 28.679C1.48359 29.7957 0.501042 31.6517 0.5 33.6366V36.3032C0.502344 38.1236 1.56146 39.7767 3.21484 40.5392C3.82525 40.8267 4.49218 40.9738 5.16666 40.9699H11.8333V39.6366H5.83332V32.3033H4.49999V39.5696C4.24895 39.5194 4.0052 39.4381 3.77395 39.3285C2.59296 38.784 1.83593 37.6035 1.83333 36.3032V33.6366C1.83489 32.0918 2.60026 30.6478 3.87734 29.779C4.64895 29.2494 5.56379 28.9673 6.49999 28.9699H11.8333C11.9508 28.9699 12.064 28.9824 12.1786 28.9902C11.9531 29.6262 11.8362 30.2954 11.8333 30.9699V37.6366C11.8357 39.4767 13.3268 40.9676 15.1666 40.9699H17.1666V30.3033H15.8333V39.6366H15.1666C14.0622 39.6366 13.1666 38.741 13.1666 37.6366V30.9699C13.1666 28.3923 15.2562 26.3033 17.8333 26.3033H23.1666C24.0244 26.3038 24.8651 26.5413 25.5966 26.9892C25.6643 27.0262 25.7294 27.0679 25.7911 27.1137C26.4158 27.5415 26.9286 28.1132 27.2859 28.7803C27.645 29.4543 27.8333 30.2061 27.8333 30.9699V37.6366C27.8333 38.741 26.9377 39.6366 25.8333 39.6366H25.1666V30.3033H23.8333V40.9699H25.8333C27.6734 40.9676 29.1643 39.4767 29.1666 37.6366V30.9699C29.1635 30.2954 29.0471 29.6264 28.8218 28.9902C28.9367 28.9824 29.0499 28.9699 29.1666 28.9699H34.4999C35.4366 28.9673 36.3523 29.2501 37.1244 29.7803C38.4004 30.6496 39.1648 32.0926 39.1666 33.6366V36.3032C39.1642 37.6082 38.4015 38.792 37.2148 39.3337C36.9869 39.4415 36.7468 39.5207 36.4999 39.5696V32.3033H35.1666V39.6366H29.1666V40.9699H35.8333C36.5038 40.9741 37.1669 40.8288 37.7739 40.5444C39.4327 39.7842 40.4973 38.128 40.4999 36.3032V33.6366C40.4989 31.6525 39.5171 29.7973 37.877 28.6803Z" fill="#1B75E8"/>
<path d="M17.833 39.636H23.1663V40.9693H17.833V39.636Z" fill="#1B75E8"/>
</svg>
