<svg width="41" height="41" viewBox="0 0 41 41" fill="none" xmlns="http://www.w3.org/2000/svg">
<path d="M35.435 20.6106C36.0513 19.8981 36.75 19.0897 36.75 18.0535C36.75 17.0172 36.0513 16.2093 35.4354 15.4968C35.0654 15.0693 34.6833 14.6272 34.59 14.2777C34.4888 13.8981 34.6008 13.3047 34.7092 12.7306C34.8808 11.8218 35.0758 10.7922 34.5746 9.92597C34.0667 9.04847 33.0688 8.70138 32.1879 8.39472C31.6433 8.20555 31.0804 8.0093 30.8121 7.7418C30.5442 7.47347 30.3483 6.91055 30.1592 6.36597C29.8529 5.48513 29.5058 4.48722 28.6275 3.97888C27.7612 3.47763 26.7308 3.67263 25.8229 3.8443C25.2488 3.95263 24.655 4.0643 24.2758 3.96305C23.9263 3.86972 23.4846 3.48763 23.0571 3.11847C22.3446 2.50222 21.5362 1.80347 20.5 1.80347C19.4637 1.80347 18.6558 2.50222 17.9433 3.11805C17.5158 3.48805 17.0737 3.87013 16.7242 3.96347C16.3442 4.06305 15.7512 3.95305 15.1771 3.8443C14.2687 3.6718 13.2387 3.47763 12.3725 3.97888C11.495 4.4868 11.1479 5.48472 10.8412 6.36555C10.6521 6.91013 10.4558 7.47305 10.1883 7.74138C9.92 8.0093 9.35708 8.20513 8.8125 8.3943C7.93167 8.70055 6.93375 9.04763 6.42542 9.92597C5.92458 10.7918 6.11917 11.8222 6.29083 12.7306C6.39958 13.3047 6.51125 13.8981 6.40958 14.2777C6.31625 14.6272 5.93417 15.0689 5.565 15.4964C4.94875 16.2089 4.25 17.0172 4.25 18.0535C4.25 19.0897 4.94875 19.8977 5.56458 20.6102C5.93458 21.0377 6.31667 21.4797 6.41 21.8293C6.51125 22.2089 6.39917 22.8022 6.29083 23.3764C6.11917 24.2852 5.92417 25.3147 6.42542 26.181C6.93333 27.0585 7.93125 27.4056 8.81208 27.7122C9.35667 27.9014 9.91958 28.0977 10.1879 28.3652C10.2204 28.3977 10.2517 28.4347 10.2821 28.4756L7.20542 38.2193C7.12583 38.4727 7.17083 38.7489 7.32792 38.9631C7.485 39.1768 7.73417 39.3035 8 39.3035H15.5C15.8633 39.3035 16.1854 39.0681 16.2946 38.7214L18.0704 33.0981C18.7521 33.6847 19.5246 34.3035 20.5 34.3035C21.4758 34.3035 22.2479 33.6843 22.9296 33.0977L24.7054 38.721C24.8146 39.0681 25.1362 39.3035 25.5 39.3035H33C33.2658 39.3035 33.515 39.1768 33.6721 38.9631C33.8292 38.7485 33.8742 38.4727 33.7946 38.2193L30.7179 28.4756C30.7483 28.4352 30.7796 28.3981 30.8117 28.3656C31.08 28.0977 31.6429 27.9018 32.1875 27.7127C33.0683 27.4064 34.0662 27.0593 34.5746 26.181C35.0754 25.3152 34.8808 24.2847 34.7092 23.3764C34.6004 22.8022 34.4888 22.2089 34.5904 21.8293C34.6833 21.4797 35.0654 21.0377 35.435 20.6106ZM14.8892 37.6368H9.13708L11.28 30.851C11.5283 31.3631 11.8583 31.8302 12.3725 32.1281C13.2387 32.6293 14.2692 32.4339 15.1771 32.2627C15.7079 32.1622 16.2475 32.0664 16.6275 32.1318L14.8892 37.6368ZM26.1108 37.6368L24.3725 32.1314C24.7521 32.0668 25.2917 32.1618 25.8229 32.2622C26.7313 32.4343 27.7612 32.6289 28.6275 32.1277C29.1421 31.8302 29.4717 31.3627 29.72 30.8502L31.8629 37.6368H26.1108ZM34.1742 19.5206C33.6812 20.0902 33.1721 20.6793 32.98 21.3989C32.7804 22.1452 32.9283 22.9285 33.0712 23.6856C33.195 24.3397 33.3229 25.0164 33.1317 25.3464C32.9338 25.6881 32.2762 25.9172 31.6404 26.1381C30.9183 26.3893 30.1717 26.6489 29.6337 27.1872C29.0954 27.7252 28.8358 28.4718 28.5846 29.1939C28.3633 29.8297 28.1346 30.4872 27.7929 30.6852C27.4629 30.876 26.7862 30.7485 26.1329 30.6247C25.3746 30.481 24.5917 30.3335 23.8458 30.5327C23.1258 30.7252 22.5367 31.2347 21.9671 31.7277C21.4496 32.1752 20.9158 32.6368 20.5 32.6368C20.0842 32.6368 19.55 32.1747 19.0329 31.7277C18.4633 31.2347 17.8742 30.7256 17.1546 30.5335C16.8942 30.4635 16.6292 30.4364 16.3629 30.4364C15.8654 30.4364 15.3613 30.5318 14.8679 30.6247C14.2129 30.7485 13.5367 30.876 13.2071 30.6852C12.8654 30.4872 12.6362 29.8297 12.4154 29.1939C12.1642 28.4718 11.9046 27.7252 11.3663 27.1872C10.8283 26.6489 10.0817 26.3893 9.35958 26.1381C8.72375 25.9168 8.06625 25.6881 7.86833 25.3464C7.67708 25.0164 7.80542 24.3402 7.92875 23.6864C8.07208 22.9289 8.22 22.1456 8.02083 21.3993C7.82833 20.6793 7.31875 20.0902 6.82583 19.5206C6.37833 19.0031 5.91667 18.4693 5.91667 18.0535C5.91667 17.6377 6.37875 17.1035 6.82583 16.5864C7.31875 16.0168 7.82792 15.4277 8.02 14.7081C8.21958 13.9618 8.07167 13.1785 7.92875 12.4214C7.805 11.7672 7.67708 11.0906 7.86833 10.7606C8.06625 10.4189 8.72375 10.1897 9.35958 9.96888C10.0817 9.71763 10.8283 9.45805 11.3663 8.91972C11.9046 8.3818 12.1642 7.63513 12.4154 6.91305C12.6367 6.27722 12.8654 5.61972 13.2071 5.4218C13.5363 5.23055 14.2133 5.35847 14.8671 5.48222C15.625 5.62597 16.4083 5.77347 17.1542 5.5743C17.8742 5.3818 18.4633 4.87222 19.0329 4.3793C19.5504 3.9318 20.0842 3.47013 20.5 3.47013C20.9158 3.47013 21.45 3.93222 21.9671 4.3793C22.5367 4.87222 23.1258 5.38138 23.8454 5.57347C24.5921 5.77347 25.375 5.62555 26.1321 5.48222C26.7862 5.35805 27.4629 5.23055 27.7929 5.4218C28.1346 5.61972 28.3637 6.27722 28.5846 6.91305C28.8358 7.63513 29.0954 8.3818 29.6337 8.91972C30.1717 9.45805 30.9183 9.71763 31.6404 9.96888C32.2762 10.1901 32.9338 10.4189 33.1317 10.7606C33.3229 11.0906 33.1946 11.7668 33.0712 12.4206C32.9279 13.1781 32.78 13.9614 32.9792 14.7077C33.1717 15.4277 33.6812 16.0168 34.1742 16.5864C34.6217 17.1039 35.0833 17.6377 35.0833 18.0535C35.0833 18.4693 34.6213 19.0035 34.1742 19.5206ZM20.5 7.6368C14.7562 7.6368 10.0833 12.3097 10.0833 18.0535C10.0833 23.7972 14.7562 28.4702 20.5 28.4702C26.2437 28.4702 30.9167 23.7972 30.9167 18.0535C30.9167 12.3097 26.2437 7.6368 20.5 7.6368ZM20.5 26.8035C15.6754 26.8035 11.75 22.8781 11.75 18.0535C11.75 13.2289 15.6754 9.30347 20.5 9.30347C25.3246 9.30347 29.25 13.2289 29.25 18.0535C29.25 22.8781 25.3246 26.8035 20.5 26.8035ZM25.6258 15.6322L22.6108 15.1722L21.2546 12.2827C21.1171 11.9902 20.8229 11.8035 20.5 11.8035C20.1771 11.8035 19.8829 11.9902 19.7454 12.2827L18.3892 15.1722L15.3742 15.6322C15.0654 15.6793 14.8092 15.8956 14.7096 16.1918C14.61 16.4881 14.685 16.8147 14.9033 17.0381L17.0854 19.2747L16.3542 22.4493C16.2812 22.7656 16.3983 23.0947 16.6542 23.2939C16.91 23.4935 17.2579 23.5256 17.5467 23.3781L20.5 21.8647L23.4533 23.3785C23.5733 23.4402 23.7033 23.4702 23.8333 23.4702C24.0154 23.4702 24.1962 23.4106 24.3454 23.2943C24.6008 23.0947 24.7183 22.7656 24.6454 22.4497L23.9142 19.2752L26.0962 17.0385C26.3142 16.8152 26.3892 16.4885 26.29 16.1922C26.1908 15.896 25.9346 15.6797 25.6258 15.6322ZM22.4033 18.4368C22.205 18.6397 22.1242 18.9297 22.1875 19.206L22.6187 21.0785L20.8796 20.1868C20.7604 20.126 20.6296 20.0952 20.4996 20.0952C20.3692 20.0952 20.2388 20.1256 20.1196 20.1868L18.3804 21.0785L18.8117 19.206C18.875 18.9297 18.7942 18.6402 18.5958 18.4368L17.2283 17.0356L19.08 16.7527C19.3546 16.7102 19.5908 16.5343 19.7088 16.2827L20.5 14.5981L21.2904 16.2827C21.4083 16.5343 21.6446 16.7102 21.9192 16.7527L23.7708 17.0356L22.4033 18.4368Z" fill="#0011BB"/>
</svg>
