<svg width="43" height="42" viewBox="0 0 43 42" fill="none" xmlns="http://www.w3.org/2000/svg">
<path d="M40.0688 31.8543H2.56936C1.49768 31.8543 0.632812 30.9895 0.632812 29.9178V3.23855C0.632812 2.17627 1.50708 1.302 2.56936 1.302H40.0688C41.1404 1.302 42.0053 2.16687 42.0053 3.23855V29.9178C42.0053 30.9895 41.1404 31.8543 40.0688 31.8543ZM2.56936 2.24207C2.02412 2.24207 1.57288 2.69331 1.57288 3.23855V29.9178C1.57288 30.4724 2.02412 30.9143 2.56936 30.9143H40.0688C40.6234 30.9143 41.0652 30.463 41.0652 29.9178V3.23855C41.0652 2.69331 40.614 2.24207 40.0688 2.24207H2.56936Z" fill="#D16900"/>
<path d="M39.016 29.3351H3.62238C3.35916 29.3351 3.15234 29.1283 3.15234 28.865V4.29157C3.15234 4.02835 3.35916 3.82153 3.62238 3.82153H39.0066C39.2699 3.82153 39.4767 4.02835 39.4767 4.29157V28.865C39.4861 29.1283 39.2699 29.3351 39.016 29.3351ZM4.09241 28.395H38.5366V4.7616H4.09241V28.395Z" fill="#D16900"/>
<path d="M16.0688 38.5946C15.9466 38.5946 15.815 38.5476 15.721 38.4442C15.5424 38.2562 15.5518 37.9554 15.7492 37.7768C18.7668 34.9753 17.5165 31.6945 17.4601 31.5535C17.3661 31.3091 17.4789 31.0365 17.7234 30.9424C17.9678 30.8484 18.2404 30.9612 18.3344 31.2057C18.3532 31.2433 18.7386 32.2303 18.6916 33.6122C18.6446 34.8907 18.2122 36.7615 16.3885 38.463C16.2945 38.557 16.1816 38.5946 16.0688 38.5946Z" fill="#D16900"/>
<path d="M26.5701 38.595C26.4573 38.595 26.3445 38.5574 26.2505 38.4728C24.4268 36.7806 23.9943 34.9005 23.9473 33.622C23.9003 32.2401 24.2858 31.253 24.3046 31.2154C24.3986 30.971 24.6712 30.8582 24.9156 30.9522C25.16 31.0462 25.2728 31.3188 25.1788 31.5633C25.1224 31.7043 23.8815 34.9851 26.8898 37.7865C27.0778 37.9651 27.0872 38.2566 26.918 38.454C26.8239 38.548 26.7017 38.595 26.5701 38.595Z" fill="#D16900"/>
<path d="M30.7533 41.3011H11.8861C11.6228 41.3011 11.416 41.0943 11.416 40.831V39.4773C11.416 38.4715 12.2339 37.6536 13.2398 37.6536H29.3996C30.4054 37.6536 31.2233 38.4715 31.2233 39.4773V40.831C31.2233 41.0849 31.0165 41.3011 30.7533 41.3011ZM12.3561 40.361H30.2832V39.4773C30.2832 38.9885 29.8884 38.5937 29.3996 38.5937H13.2398C12.7509 38.5937 12.3561 38.9885 12.3561 39.4773V40.361Z" fill="#D16900"/>
<path d="M12.7696 23.1962C12.685 23.1962 12.6004 23.1774 12.5252 23.1304L7.11038 19.8872C6.96937 19.8026 6.88477 19.6522 6.88477 19.483V13.3443C6.88477 13.1751 6.97877 13.0153 7.11978 12.9307C7.26079 12.8461 7.44881 12.8461 7.58982 12.9401L13.0046 16.1833C13.1456 16.2679 13.2302 16.4183 13.2302 16.5875V22.7262C13.2302 22.8954 13.1362 23.0552 12.9952 23.1398C12.9294 23.1774 12.8448 23.1962 12.7696 23.1962ZM7.82484 19.2197L12.2996 21.8989V16.8508L7.82484 14.1716V19.2197Z" fill="#D16900"/>
<path d="M12.7689 23.1971C12.6843 23.1971 12.6091 23.1783 12.5338 23.1407C12.3834 23.0561 12.2988 22.9057 12.2988 22.7271V16.5884C12.2988 16.4192 12.3834 16.2688 12.5244 16.1842L17.9393 12.9409C18.0803 12.8563 18.2683 12.8563 18.4093 12.9315C18.5597 13.0161 18.6443 13.1759 18.6443 13.3452V19.4838C18.6443 19.653 18.5597 19.8034 18.4187 19.8881L13.0039 23.1313C12.9381 23.1783 12.8535 23.1971 12.7689 23.1971ZM13.2389 16.8516V21.8998L17.7136 19.2206V14.1724L13.2389 16.8516Z" fill="#D16900"/>
<path d="M7.35439 13.8145C7.18517 13.8145 7.02536 13.7299 6.94076 13.5701C6.81855 13.3445 6.90315 13.0531 7.12877 12.9309L12.5436 10.0166C12.6846 9.9414 12.8538 9.9414 12.9854 10.0166L18.4002 12.9309C18.6258 13.0531 18.7104 13.3351 18.5882 13.5701C18.466 13.8051 18.184 13.8803 17.949 13.7581L12.7598 10.9661L7.5706 13.7581C7.5048 13.7957 7.42959 13.8145 7.35439 13.8145Z" fill="#D16900"/>
<path d="M16.8305 8.60731H8.70832C8.4451 8.60731 8.23828 8.40049 8.23828 8.13727C8.23828 7.87405 8.4451 7.66724 8.70832 7.66724H16.8305C17.0937 7.66724 17.3006 7.87405 17.3006 8.13727C17.3006 8.40049 17.0937 8.60731 16.8305 8.60731Z" fill="#D16900"/>
<path d="M15.4669 9.9699C15.3447 9.9699 15.2225 9.9229 15.1379 9.82889C14.9593 9.65028 14.9593 9.34946 15.1379 9.16144L16.1719 8.12736L15.1379 7.09329C14.9593 6.91467 14.9593 6.61385 15.1379 6.42584C15.3165 6.23782 15.6173 6.24722 15.8053 6.42584L17.159 7.80774C17.3376 7.98635 17.3376 8.28718 17.159 8.47519L15.7959 9.83829C15.7019 9.9229 15.5891 9.9699 15.4669 9.9699Z" fill="#D16900"/>
<path d="M10.0722 9.97063C9.94997 9.97063 9.82776 9.92362 9.74316 9.82962L8.38005 8.46651C8.20144 8.2879 8.20144 7.98708 8.38005 7.79906L9.74316 6.43596C9.92177 6.25735 10.2226 6.25735 10.4106 6.43596C10.5892 6.61457 10.5892 6.9154 10.4106 7.10341L9.37653 8.13749L10.4106 9.17157C10.5892 9.35018 10.5892 9.651 10.4106 9.83902C10.3166 9.92362 10.1944 9.97063 10.0722 9.97063Z" fill="#D16900"/>
<path d="M16.8305 25.4999H8.70832C8.4451 25.4999 8.23828 25.2931 8.23828 25.0299C8.23828 24.7667 8.4451 24.5598 8.70832 24.5598H16.8305C17.0937 24.5598 17.3006 24.7667 17.3006 25.0299C17.3006 25.2931 17.0937 25.4999 16.8305 25.4999Z" fill="#D16900"/>
<path d="M15.4669 26.8621C15.3447 26.8621 15.2225 26.8151 15.1379 26.7211C14.9593 26.5331 14.9593 26.2417 15.1379 26.0536L16.1719 25.0196L15.1379 23.9855C14.9593 23.7975 14.9593 23.5061 15.1379 23.318C15.3165 23.13 15.6173 23.13 15.8053 23.318L17.1684 24.6811C17.347 24.8692 17.347 25.1606 17.1684 25.3486L15.8053 26.7117C15.7019 26.8151 15.5891 26.8621 15.4669 26.8621Z" fill="#D16900"/>
<path d="M10.0722 26.8625C9.94997 26.8625 9.82776 26.8155 9.74316 26.7215L8.38005 25.3584C8.20144 25.1703 8.20144 24.8789 8.38005 24.6909L9.74316 23.3278C9.92177 23.1398 10.2226 23.1398 10.4106 23.3278C10.5892 23.5158 10.5892 23.8072 10.4106 23.9953L9.37653 25.0293L10.4106 26.0634C10.5892 26.2514 10.5892 26.5428 10.4106 26.7309C10.3166 26.8155 10.1944 26.8625 10.0722 26.8625Z" fill="#D16900"/>
<path d="M23.5507 26.862H21.9808C21.2945 26.862 20.7305 26.3074 20.7305 25.6211V10.815C20.7305 10.5518 20.9373 10.345 21.2005 10.345H24.3215C24.5848 10.345 24.7916 10.5518 24.7916 10.815V25.6117C24.801 26.298 24.2369 26.862 23.5507 26.862ZM21.6799 11.2851V25.6117C21.6799 25.781 21.821 25.9126 21.9902 25.9126H23.5507C23.7199 25.9126 23.8515 25.7716 23.8515 25.6117V11.2851H21.6799Z" fill="#D16900"/>
<path d="M24.3309 11.2864C24.1429 11.2864 23.9643 11.1735 23.8891 10.9855L22.7704 8.0807L21.6517 10.9855C21.5577 11.23 21.2851 11.3522 21.0406 11.2582C20.7962 11.1641 20.674 10.8915 20.768 10.6471L22.3285 6.60478C22.3943 6.42616 22.573 6.30396 22.7704 6.30396C22.9678 6.30396 23.137 6.42616 23.2122 6.60478L24.7727 10.6471C24.8667 10.8915 24.7445 11.1641 24.5001 11.2582C24.4437 11.277 24.3873 11.2864 24.3309 11.2864Z" fill="#D16900"/>
<path d="M24.3313 24.0898H21.2103C20.947 24.0898 20.7402 23.8829 20.7402 23.6197C20.7402 23.3565 20.947 23.1497 21.2103 23.1497H24.3313C24.5945 23.1497 24.8013 23.3565 24.8013 23.6197C24.8013 23.8829 24.5851 24.0898 24.3313 24.0898Z" fill="#D16900"/>
<path d="M35.2841 8.47449H27.1243C26.8611 8.47449 26.6543 8.26768 26.6543 8.00446C26.6543 7.74124 26.8611 7.53442 27.1243 7.53442H35.2841C35.5474 7.53442 35.7542 7.74124 35.7542 8.00446C35.7542 8.26768 35.5474 8.47449 35.2841 8.47449Z" fill="#D16900"/>
<path d="M35.2841 11.3319H27.1243C26.8611 11.3319 26.6543 11.1251 26.6543 10.8619C26.6543 10.5987 26.8611 10.3918 27.1243 10.3918H35.2841C35.5474 10.3918 35.7542 10.5987 35.7542 10.8619C35.7542 11.1251 35.5474 11.3319 35.2841 11.3319Z" fill="#D16900"/>
<path d="M35.2841 14.1894H27.1243C26.8611 14.1894 26.6543 13.9826 26.6543 13.7193C26.6543 13.4561 26.8611 13.2493 27.1243 13.2493H35.2841C35.5474 13.2493 35.7542 13.4561 35.7542 13.7193C35.7542 13.9826 35.5474 14.1894 35.2841 14.1894Z" fill="#D16900"/>
<path d="M35.2841 17.0486H27.1243C26.8611 17.0486 26.6543 16.8418 26.6543 16.5786C26.6543 16.3154 26.8611 16.1086 27.1243 16.1086H35.2841C35.5474 16.1086 35.7542 16.3154 35.7542 16.5786C35.7542 16.8418 35.5474 17.0486 35.2841 17.0486Z" fill="#D16900"/>
<path d="M35.2841 19.9062H27.1243C26.8611 19.9062 26.6543 19.6993 26.6543 19.4361C26.6543 19.1729 26.8611 18.9661 27.1243 18.9661H35.2841C35.5474 18.9661 35.7542 19.1729 35.7542 19.4361C35.7542 19.6993 35.5474 19.9062 35.2841 19.9062Z" fill="#D16900"/>
<path d="M35.2841 22.7636H27.1243C26.8611 22.7636 26.6543 22.5568 26.6543 22.2936C26.6543 22.0303 26.8611 21.8235 27.1243 21.8235H35.2841C35.5474 21.8235 35.7542 22.0303 35.7542 22.2936C35.7542 22.5568 35.5474 22.7636 35.2841 22.7636Z" fill="#D16900"/>
<path d="M35.2841 25.621H27.1243C26.8611 25.621 26.6543 25.4142 26.6543 25.151C26.6543 24.8878 26.8611 24.6809 27.1243 24.6809H35.2841C35.5474 24.6809 35.7542 24.8878 35.7542 25.151C35.7542 25.4142 35.5474 25.621 35.2841 25.621Z" fill="#D16900"/>
</svg>
