<svg width="41" height="41" viewBox="0 0 41 41" fill="none" xmlns="http://www.w3.org/2000/svg">
<path d="M40.1505 30.0737L36.0517 28.0243L33.4432 21.2388C33.4124 21.1586 33.3655 21.0856 33.3053 21.0243C33.2451 20.963 33.1729 20.9148 33.0933 20.8827L16.9075 14.4127C16.7943 14.3677 16.6705 14.3567 16.5511 14.3811C16.4318 14.4055 16.3222 14.4643 16.2358 14.5502L14.0771 16.7089C13.9923 16.7954 13.9345 16.9046 13.9107 17.0233C13.8868 17.142 13.898 17.265 13.9428 17.3775L20.4127 33.5632C20.4448 33.6429 20.493 33.7151 20.5543 33.7753C20.6156 33.8355 20.6886 33.8824 20.7688 33.9131L27.5543 36.5217L29.6037 40.6205C29.6468 40.7109 29.7111 40.7896 29.791 40.8499C29.8709 40.9103 29.9642 40.9505 30.0629 40.9673C30.0962 40.9704 30.1296 40.9704 30.1629 40.9673C30.3283 40.9666 30.4867 40.9003 30.6034 40.783L40.313 31.0734C40.3844 31.0044 40.4384 30.9194 40.4705 30.8254C40.5025 30.7314 40.5117 30.6312 40.4973 30.5329C40.4805 30.4342 40.4403 30.3409 40.3799 30.261C40.3196 30.1811 40.2409 30.1168 40.1505 30.0737ZM15.2517 17.2963L15.5985 16.9526L23.6555 25.0096C23.1245 25.762 22.8952 26.6862 23.0128 27.5996C23.1305 28.5129 23.5866 29.3489 24.291 29.9421C24.9953 30.5353 25.8967 30.8427 26.8167 30.8034C27.7368 30.764 28.6086 30.3809 29.2598 29.7297C29.9109 29.0786 30.2941 28.2068 30.3334 27.2867C30.3727 26.3667 30.0654 25.4653 29.4721 24.761C28.8789 24.0566 28.0429 23.6005 27.1296 23.4828C26.2162 23.3651 25.292 23.5945 24.5396 24.1255L16.4826 16.0685L16.8263 15.7217L32.3747 21.9417L34.8271 28.3211L27.8511 35.2971L21.4717 32.8447L15.2517 17.2963ZM26.6577 24.7003C27.2192 24.7011 27.7631 24.8966 28.1967 25.2535C28.6303 25.6103 28.9267 26.1065 29.0355 26.6574C29.1443 27.2083 29.0587 27.7799 28.7933 28.2748C28.528 28.7697 28.0992 29.1572 27.5802 29.3715C27.0611 29.5857 26.4838 29.6134 25.9466 29.4497C25.4095 29.286 24.9456 28.9412 24.6342 28.4739C24.3228 28.0067 24.183 27.4459 24.2386 26.8871C24.2943 26.3283 24.542 25.8061 24.9395 25.4094C25.3956 24.9547 26.0136 24.6997 26.6577 24.7003ZM30.3347 39.2865L28.7727 36.1625L35.6862 29.2489L38.8103 30.8109L30.3347 39.2865Z" fill="#4500D0"/>
<path d="M12.4588 34.4072C12.3393 34.2942 12.1811 34.2313 12.0167 34.2313C11.8523 34.2313 11.6942 34.2942 11.5747 34.4072L10.7812 35.2007C8.6636 32.3267 7.49542 28.8637 7.43942 25.2943C7.38342 21.7249 8.4424 18.2269 10.4688 15.2879C11.0758 15.622 11.7749 15.7503 12.461 15.6536C13.1472 15.557 13.7836 15.2406 14.2748 14.7518C14.766 14.2631 15.0856 13.6283 15.1857 12.9427C15.2858 12.257 15.1609 11.5573 14.8299 10.9486C17.7689 8.92219 21.2669 7.86322 24.8363 7.91922C28.4057 7.97522 31.8687 9.1434 34.7427 11.261L33.9367 12.0451C33.8205 12.1623 33.7554 12.3206 33.7555 12.4856C33.755 12.5678 33.7708 12.6494 33.8019 12.7255C33.833 12.8016 33.8788 12.8708 33.9367 12.9292L36.6921 15.6628C36.8092 15.7792 36.9676 15.8445 37.1326 15.8445C37.2977 15.8445 37.456 15.7792 37.5731 15.6628L40.3129 12.923C40.371 12.865 40.4171 12.796 40.4485 12.7202C40.48 12.6443 40.4962 12.563 40.4962 12.4809C40.4962 12.3988 40.48 12.3175 40.4485 12.2417C40.4171 12.1658 40.371 12.0969 40.3129 12.0389L37.5731 9.29904C37.456 9.18267 37.2977 9.11735 37.1326 9.11735C36.9676 9.11735 36.8092 9.18267 36.6921 9.29904L35.6331 10.3519C33.0229 8.38774 29.9371 7.15374 26.6923 6.77656C23.4476 6.39938 20.1609 6.89262 17.1699 8.20562L20.7719 4.61295C21.1803 4.8081 21.6447 4.85228 22.0826 4.73763C22.5205 4.62299 22.9036 4.35695 23.164 3.9867C23.4244 3.61645 23.5452 3.16593 23.505 2.71506C23.4649 2.2642 23.2663 1.84214 22.9445 1.52376C22.6228 1.20538 22.1987 1.01126 21.7474 0.975844C21.2961 0.940428 20.8469 1.066 20.4794 1.33029C20.1119 1.59458 19.8499 1.98049 19.7399 2.41957C19.6299 2.85864 19.679 3.3225 19.8784 3.72884L13.799 9.81764C13.1817 9.40358 12.4399 9.21667 11.7001 9.28886C10.9603 9.36104 10.2686 9.68784 9.74299 10.2134C9.21741 10.739 8.89062 11.4308 8.81844 12.1705C8.74625 12.9103 8.93315 13.6522 9.34721 14.2695L3.25842 20.3489C2.85049 20.1501 2.38529 20.1024 1.9455 20.2142C1.50571 20.326 1.1198 20.5901 0.856358 20.9596C0.592911 21.3291 0.468987 21.78 0.506605 22.2322C0.544224 22.6845 0.740949 23.1087 1.06182 23.4296C1.3827 23.7505 1.80694 23.9472 2.25916 23.9848C2.71138 24.0224 3.1623 23.8985 3.53178 23.635C3.90126 23.3716 4.16538 22.9857 4.2772 22.5459C4.38902 22.1061 4.3413 21.6409 4.14253 21.233L7.74457 17.6403C6.43025 20.6306 5.93546 23.9168 6.31099 27.1615C6.68652 30.4062 7.91884 33.4925 9.88143 36.1035L8.8255 37.1626C8.70912 37.2796 8.6438 37.438 8.6438 37.6031C8.6438 37.7681 8.70912 37.9265 8.8255 38.0436L11.5653 40.7834C11.6819 40.9007 11.8403 40.967 12.0058 40.9677C12.0882 40.9677 12.1699 40.9515 12.246 40.9199C12.3222 40.8882 12.3913 40.8418 12.4494 40.7834L15.1923 38.0436C15.3087 37.9265 15.374 37.7681 15.374 37.6031C15.374 37.438 15.3087 37.2796 15.1923 37.1626L12.4588 34.4072ZM37.1389 10.6174L38.9946 12.4731L37.1389 14.3288L35.2832 12.4731L37.1389 10.6174ZM21.128 2.42611C21.2209 2.3325 21.3395 2.26859 21.4687 2.24247C21.5979 2.21636 21.732 2.22922 21.8539 2.27943C21.9758 2.32963 22.08 2.41492 22.1534 2.52446C22.2267 2.63401 22.2659 2.76288 22.2659 2.89471C22.2659 3.02655 22.2267 3.15542 22.1534 3.26497C22.08 3.37451 21.9758 3.4598 21.8539 3.51C21.732 3.56021 21.5979 3.57307 21.4687 3.54695C21.3395 3.52084 21.2209 3.45693 21.128 3.36332C21.0665 3.30181 21.0176 3.22877 20.9843 3.14836C20.9509 3.06795 20.9338 2.98176 20.9338 2.89471C20.9338 2.80767 20.9509 2.72148 20.9843 2.64107C21.0176 2.56066 21.0665 2.48762 21.128 2.42611ZM10.6312 11.1017C10.8126 10.9193 11.0283 10.7747 11.2658 10.676C11.5033 10.5772 11.758 10.5264 12.0152 10.5264C12.2724 10.5264 12.527 10.5772 12.7645 10.676C13.002 10.7747 13.2177 10.9193 13.3991 11.1017C13.6734 11.3755 13.8602 11.7245 13.9361 12.1045C14.0119 12.4846 13.9733 12.8786 13.8251 13.2367C13.677 13.5948 13.4259 13.9009 13.1037 14.1163C12.7815 14.3317 12.4027 14.4466 12.0152 14.4466C11.6276 14.4466 11.2488 14.3317 10.9266 14.1163C10.6044 13.9009 10.3533 13.5948 10.2052 13.2367C10.057 12.8786 10.0184 12.4846 10.0942 12.1045C10.1701 11.7245 10.3569 11.3755 10.6312 11.1017ZM2.89603 22.5357C2.76847 22.6421 2.60574 22.6969 2.43982 22.6894C2.27389 22.6819 2.11677 22.6126 1.99933 22.4952C1.88188 22.3778 1.8126 22.2206 1.8051 22.0547C1.79761 21.8888 1.85243 21.7261 1.95881 21.5985C2.08384 21.4756 2.25212 21.4068 2.42742 21.4068C2.60272 21.4068 2.771 21.4756 2.89603 21.5985C2.95761 21.66 3.00647 21.7331 3.03981 21.8135C3.07314 21.8939 3.0903 21.9801 3.0903 22.0671C3.0903 22.1542 3.07314 22.2403 3.03981 22.3208C3.00647 22.4012 2.95761 22.4742 2.89603 22.5357ZM12.0152 39.4463L10.1595 37.5906L12.0152 35.7349L13.8709 37.5906L12.0152 39.4463Z" fill="#4500D0"/>
</svg>
