<svg width="47" height="41" viewBox="0 0 47 41" fill="none" xmlns="http://www.w3.org/2000/svg">
<path d="M18.388 30.0693C18.2168 30.0693 18.0442 30.0104 17.9035 29.8905L13.06 25.7663C12.8929 25.6239 12.7969 25.4159 12.7969 25.1962C12.7969 24.9769 12.8934 24.7689 13.06 24.6265L17.9035 20.5022C18.218 20.2341 18.6904 20.2721 18.9586 20.5866C19.2263 20.9015 19.1887 21.3739 18.8738 21.6417L14.6998 25.1962L18.8738 28.7507C19.1887 29.0188 19.2263 29.4912 18.9586 29.8057C18.8103 29.9799 18.5998 30.0693 18.388 30.0693Z" fill="#00BC65"/>
<path d="M27.9491 30.0693C27.7373 30.0693 27.5268 29.9799 27.3789 29.8057C27.1108 29.4912 27.1488 29.0188 27.4633 28.7507L31.6372 25.1962L27.4633 21.6417C27.1488 21.3739 27.1108 20.9015 27.3789 20.5866C27.6467 20.2721 28.1195 20.2341 28.4336 20.5022L33.277 24.6265C33.4441 24.7689 33.5402 24.9769 33.5402 25.1962C33.5402 25.4159 33.4441 25.6239 33.277 25.7663L28.4336 29.8905C28.2928 30.0104 28.1203 30.0693 27.9491 30.0693Z" fill="#00BC65"/>
<path d="M21.4538 33.1626C21.4024 33.1626 21.3506 33.1572 21.2984 33.1463C20.8941 33.0611 20.6351 32.6639 20.7203 32.2596L23.7389 17.9276C23.8241 17.5233 24.2209 17.2643 24.6257 17.3495C25.03 17.4347 25.289 17.8315 25.2038 18.2362L22.1851 32.5683C22.1108 32.9208 21.8 33.1626 21.4538 33.1626Z" fill="#00BC65"/>
<path d="M40.8116 40.97H5.52558C2.75466 40.97 0.5 38.7158 0.5 35.9444V5.99555C0.5 3.22463 2.75466 0.969971 5.52558 0.969971H40.8116C43.5825 0.969971 45.8372 3.22463 45.8372 5.99555V35.9444C45.8372 38.7158 43.5825 40.97 40.8116 40.97ZM5.52558 2.46695C3.58001 2.46695 1.99698 4.04998 1.99698 5.99555V35.9444C1.99698 37.89 3.58001 39.473 5.52558 39.473H40.8116C42.7572 39.473 44.3402 37.89 44.3402 35.9444V5.99555C44.3402 4.04998 42.7572 2.46695 40.8116 2.46695H5.52558Z" fill="#00BC65"/>
<path d="M45.0887 12.9553H1.24849C0.834983 12.9553 0.5 12.6203 0.5 12.2068C0.5 11.7937 0.834983 11.4583 1.24849 11.4583H45.0887C45.5022 11.4583 45.8372 11.7937 45.8372 12.2068C45.8372 12.6203 45.5022 12.9553 45.0887 12.9553Z" fill="#00BC65"/>
<path d="M13.2886 9.37337C11.9829 9.37337 10.9199 8.31036 10.9199 7.00468C10.9199 5.69858 11.9829 4.63599 13.2886 4.63599C14.5947 4.63599 15.6573 5.69858 15.6573 7.00468C15.6573 8.31036 14.5947 9.37337 13.2886 9.37337ZM13.2886 6.13297C12.8083 6.13297 12.4169 6.52392 12.4169 7.00468C12.4169 7.48543 12.8083 7.87638 13.2886 7.87638C13.7694 7.87638 14.1603 7.48543 14.1603 7.00468C14.1603 6.52392 13.7694 6.13297 13.2886 6.13297Z" fill="#00BC65"/>
<path d="M6.01127 9.34993C4.70517 9.34993 3.64258 8.28734 3.64258 6.98124C3.64258 5.67514 4.70517 4.61255 6.01127 4.61255C7.31737 4.61255 8.37996 5.67514 8.37996 6.98124C8.37996 8.28734 7.31737 9.34993 6.01127 9.34993ZM6.01127 6.10953C5.53093 6.10953 5.13956 6.5009 5.13956 6.98124C5.13956 7.46199 5.53093 7.85295 6.01127 7.85295C6.49202 7.85295 6.88298 7.46199 6.88298 6.98124C6.88298 6.5009 6.49202 6.10953 6.01127 6.10953Z" fill="#00BC65"/>
<path d="M20.5665 9.39639C19.2608 9.39639 18.1982 8.3338 18.1982 7.0277C18.1982 5.72201 19.2608 4.65942 20.5665 4.65942C21.8726 4.65942 22.9352 5.72201 22.9352 7.0277C22.9352 8.3338 21.8726 9.39639 20.5665 9.39639ZM20.5665 6.15599C20.0862 6.15599 19.6952 6.54694 19.6952 7.0277C19.6952 7.50845 20.0862 7.8994 20.5665 7.8994C21.0473 7.8994 21.4382 7.50845 21.4382 7.0277C21.4382 6.54694 21.0473 6.15599 20.5665 6.15599Z" fill="#00BC65"/>
</svg>
