<svg width="39" height="41" viewBox="0 0 39 41" fill="none" xmlns="http://www.w3.org/2000/svg">
<path d="M34.7 7.06096C35.494 7.06096 36.1364 6.41853 36.1364 5.6246C36.1364 4.83066 35.494 4.18823 34.7 4.18823C33.9061 4.18823 33.2637 4.83066 33.2637 5.6246C33.2637 6.41853 33.9122 7.06096 34.7 7.06096ZM34.7 5.21247C34.9303 5.21247 35.1182 5.40035 35.1182 5.63066C35.1182 5.86096 34.9303 6.04884 34.7 6.04884C34.4637 6.04884 34.2819 5.86702 34.2819 5.63066C34.2819 5.39429 34.4697 5.21247 34.7 5.21247Z" fill="#F2A700"/>
<path d="M36.2942 1.86694H6.76689C5.64568 1.86694 4.73053 2.78209 4.73053 3.90331V7.0124H2.70629C1.58507 7.0124 0.669922 7.92755 0.669922 9.04876V34.5821C0.669922 35.7033 1.58507 36.6185 2.70629 36.6185H16.2396V39.5639C16.2396 39.8427 16.4699 40.073 16.7487 40.073H26.3123C26.5911 40.073 26.8214 39.8427 26.8214 39.5639V36.6185H32.2336C33.3548 36.6185 34.2699 35.7033 34.2699 34.5821V31.473H36.2942C37.4154 31.473 38.3305 30.5579 38.3305 29.4367V3.90331C38.3305 2.78209 37.4154 1.86694 36.2942 1.86694ZM5.74871 3.90331C5.74871 3.33967 6.20932 2.88512 6.76689 2.88512H36.2942C36.8578 2.88512 37.3123 3.34573 37.3123 3.90331V8.36997H17.9911L15.7184 6.0124C15.5426 5.83058 15.3002 5.72755 15.0517 5.72755H10.0457C9.53659 5.72755 9.11841 6.14573 9.11841 6.65482V8.36997H5.74871V3.90331ZM2.70629 35.6064C2.14265 35.6064 1.6881 35.1458 1.6881 34.5882V9.04876C1.6881 8.48512 2.14871 8.03058 2.70629 8.03058H4.73053V29.4427C4.73053 30.5639 5.64568 31.4791 6.76689 31.4791H17.8214C18.0214 31.867 18.1123 32.3033 18.076 32.7518H17.2881C16.7063 32.7518 16.2396 33.2245 16.2396 33.8003V35.6064H2.70629ZM21.0275 24.9458C21.1305 24.7639 21.3184 24.6488 21.5305 24.6488C21.8457 24.6488 22.1002 24.9033 22.1002 25.2185C22.1002 25.4245 21.9911 25.6124 21.8154 25.7155C21.6214 25.8306 21.3911 25.8185 21.1548 25.6852C21.1245 25.667 21.0942 25.6427 21.082 25.6124C20.8881 25.3033 20.9669 25.0609 21.0275 24.9458ZM21.0214 23.7276C20.6517 23.8549 20.3366 24.1033 20.1427 24.4549C19.8517 24.9761 19.8881 25.6124 20.2275 26.1579C20.3366 26.3276 20.482 26.467 20.6578 26.57C20.9366 26.7276 21.2396 26.8124 21.5366 26.8124C21.8154 26.8124 22.0881 26.7397 22.3305 26.6003C22.8154 26.3155 23.1184 25.7882 23.1184 25.2245C23.1184 24.5276 22.6639 23.9397 22.0396 23.7276V21.1094L26.5426 29.2367C26.5366 29.2427 26.5305 29.2549 26.5123 29.2609C24.9184 29.673 23.876 31.1639 23.9608 32.7518H19.1063C19.1972 31.1579 18.1487 29.667 16.5245 29.2124L21.0214 21.1094V23.7276ZM25.8033 39.0549H17.2578L17.2881 33.7639H25.773C25.7911 33.7639 25.8033 33.7761 25.8033 33.7942V39.0549ZM33.2517 34.5821C33.2517 35.1458 32.7911 35.6003 32.2336 35.6003H26.8214V33.7942C26.8214 33.2124 26.3487 32.7458 25.773 32.7458H24.9851C24.9487 32.2973 25.0457 31.8609 25.2396 31.473H33.2517V34.5821ZM36.2942 30.4609H26.2275C26.3911 30.37 26.5669 30.2912 26.7608 30.2427C27.082 30.1579 27.3426 29.9336 27.476 29.6306C27.6033 29.3336 27.5851 29.0003 27.4275 28.7155L22.2154 19.3276C22.082 19.0791 21.8214 18.9215 21.5366 18.9215C21.2457 18.9276 20.9851 19.073 20.8457 19.3215L15.6275 28.7155C15.4699 29.0003 15.4578 29.3397 15.5851 29.6367C15.7123 29.9397 15.973 30.1579 16.2942 30.2427C16.4881 30.2912 16.6578 30.37 16.8275 30.4609H6.76689C6.20326 30.4609 5.74871 30.0003 5.74871 29.4427V9.38815H9.20326C9.71235 9.38815 10.1305 8.96997 10.1305 8.46088V6.74573H15.0093L17.282 9.10331C17.4578 9.28513 17.7002 9.38815 17.9487 9.38815H37.3123V29.4367C37.3123 30.0003 36.8578 30.4609 36.2942 30.4609Z" fill="#F2A700"/>
<path d="M31.2337 7.06096C32.0277 7.06096 32.6701 6.41853 32.6701 5.6246C32.6701 4.83066 32.0277 4.18823 31.2337 4.18823C30.4398 4.18823 29.7974 4.83066 29.7974 5.6246C29.7974 6.41853 30.4398 7.06096 31.2337 7.06096ZM31.2337 5.21247C31.464 5.21247 31.6519 5.40035 31.6519 5.63066C31.6519 5.86096 31.464 6.04884 31.2337 6.04884C30.9974 6.04884 30.8155 5.86702 30.8155 5.63066C30.8155 5.39429 31.0034 5.21247 31.2337 5.21247Z" fill="#F2A700"/>
<path d="M27.7611 7.06096C28.555 7.06096 29.1974 6.41853 29.1974 5.6246C29.1974 4.83066 28.555 4.18823 27.7611 4.18823C26.9671 4.18823 26.3247 4.83066 26.3247 5.6246C26.3247 6.41853 26.9671 7.06096 27.7611 7.06096ZM27.7611 5.21247C27.9914 5.21247 28.1793 5.40035 28.1793 5.63066C28.1793 5.86096 27.9914 6.04884 27.7611 6.04884C27.5247 6.04884 27.3429 5.86702 27.3429 5.63066C27.3429 5.39429 27.5308 5.21247 27.7611 5.21247Z" fill="#F2A700"/>
<path d="M31.3424 13.8243C31.0455 14.1213 30.8576 14.497 30.7849 14.897H23.6636V14.097C23.6636 13.5516 23.2212 13.1092 22.6758 13.1092H20.3788C19.8333 13.1092 19.3909 13.5516 19.3909 14.097V14.897H12.2758C12.2091 14.5031 12.0212 14.1273 11.7182 13.8183C10.9485 13.0607 9.63333 13.0728 8.88181 13.8243C8.5 14.2061 8.29395 14.7092 8.29395 15.2425C8.29395 15.7819 8.50606 16.291 8.88181 16.6607C9.26363 17.0546 9.77272 17.2546 10.3 17.2546C10.6333 17.2546 10.9727 17.1758 11.2939 17.0122C11.6394 16.8364 11.9242 16.5455 12.0939 16.1879C12.1364 16.097 12.1727 16.0061 12.203 15.9152H17.1424C14.4576 17.2243 12.4333 19.6849 11.7303 22.6546H10.9424C10.397 22.6546 9.95455 23.097 9.95455 23.6425V25.9395C9.95455 26.4849 10.397 26.9273 10.9424 26.9273H13.2394C13.7849 26.9273 14.2273 26.4849 14.2273 25.9395V23.6425C14.2273 23.097 13.7849 22.6546 13.2394 22.6546H12.7788C13.6273 19.4546 16.1909 16.9455 19.4091 16.1698V16.3879C19.4091 16.9334 19.8515 17.3758 20.397 17.3758H22.6939C23.2394 17.3758 23.6818 16.9334 23.6818 16.3879V16.1698C26.8939 16.9455 29.4576 19.4546 30.3121 22.6546H29.8939C29.3485 22.6546 28.9061 23.097 28.9061 23.6425V25.9395C28.9061 26.4849 29.3485 26.9273 29.8939 26.9273H32.1909C32.7364 26.9273 33.1788 26.4849 33.1788 25.9395V23.6425C33.1788 23.097 32.7364 22.6546 32.1909 22.6546H31.3606C30.6515 19.6849 28.6273 17.2183 25.9485 15.9152H30.9C30.997 16.194 31.1546 16.4486 31.3667 16.6607C31.7485 17.0546 32.2576 17.2546 32.7849 17.2546C33.1182 17.2546 33.4576 17.1758 33.7788 17.0122C34.1242 16.8364 34.4091 16.5455 34.5788 16.1879C34.9727 15.3576 34.8333 14.4546 34.2091 13.8183C33.4152 13.0667 32.1 13.0728 31.3424 13.8243ZM11.1667 15.7576C11.0939 15.9031 10.9727 16.0304 10.8273 16.1031C10.3 16.3698 9.84546 16.2001 9.59698 15.9395C9.4091 15.7576 9.30607 15.5092 9.30607 15.2425C9.30607 14.9819 9.4091 14.7334 9.59698 14.5395C9.78485 14.3516 10.0333 14.2486 10.3 14.2486C10.5606 14.2486 10.8152 14.3516 10.997 14.5334C11.3121 14.8607 11.3727 15.3152 11.1667 15.7576ZM13.2273 25.9092L10.9606 25.9395L10.9303 23.6728H13.197L13.2273 25.9092ZM32.1727 25.9092L29.9061 25.9395L29.8758 23.6728H32.1424L32.1727 25.9092ZM20.4152 16.394L20.403 15.6304C20.4152 15.5758 20.4152 15.5213 20.4091 15.4607V15.4546C20.4091 15.4364 20.4212 15.4243 20.4212 15.4061C20.4212 15.3758 20.4091 15.3516 20.403 15.3273L20.3849 14.1334H22.6515L22.6697 15.3273C22.6636 15.3576 22.6515 15.3819 22.6515 15.4122C22.6515 15.4304 22.6576 15.4425 22.6636 15.4607V15.4667C22.6515 15.5455 22.6576 15.6183 22.6758 15.6849L22.6879 16.3698L20.4152 16.394ZM33.6333 15.7576C33.5606 15.9031 33.4394 16.0304 33.2939 16.1031C32.7667 16.3698 32.3121 16.2001 32.0636 15.9395C31.8758 15.7576 31.7727 15.5092 31.7727 15.2425C31.7727 14.9819 31.8758 14.7334 32.0636 14.5395C32.2515 14.3516 32.5 14.2486 32.7667 14.2486C33.0273 14.2486 33.2818 14.3516 33.4636 14.5334C33.7788 14.8607 33.8394 15.3152 33.6333 15.7576Z" fill="#F2A700"/>
</svg>
