<svg width="41" height="41" viewBox="0 0 41 41" fill="none" xmlns="http://www.w3.org/2000/svg">
<path d="M36.5413 34.095H31.75C31.4864 33.1929 30.9375 32.4006 30.1856 31.8369C29.4336 31.2732 28.5192 30.9685 27.5794 30.9685C26.6396 30.9685 25.7252 31.2732 24.9732 31.8369C24.2212 32.4006 23.6723 33.1929 23.4087 34.095H3C2.66848 34.095 2.35054 34.2267 2.11612 34.4611C1.8817 34.6955 1.75 35.0134 1.75 35.345C1.75 35.6765 1.8817 35.9944 2.11612 36.2289C2.35054 36.4633 2.66848 36.595 3 36.595H23.4125C23.6771 37.4955 24.2263 38.2862 24.9777 38.8486C25.7292 39.411 26.6426 39.715 27.5813 39.715C28.5199 39.715 29.4333 39.411 30.1848 38.8486C30.9362 38.2862 31.4854 37.4955 31.75 36.595H36.5375C36.869 36.595 37.187 36.4633 37.4214 36.2289C37.6558 35.9944 37.7875 35.6765 37.7875 35.345C37.7875 35.0134 37.6558 34.6955 37.4214 34.4611C37.187 34.2267 36.869 34.095 36.5375 34.095H36.5413ZM27.5837 37.22C27.2129 37.22 26.8504 37.11 26.5421 36.904C26.2337 36.6979 25.9934 36.4051 25.8515 36.0625C25.7096 35.7199 25.6724 35.3429 25.7448 34.9792C25.8171 34.6155 25.9957 34.2814 26.2579 34.0191C26.5201 33.7569 26.8542 33.5783 27.218 33.506C27.5817 33.4336 27.9587 33.4708 28.3013 33.6127C28.6439 33.7546 28.9367 33.9949 29.1428 34.3033C29.3488 34.6116 29.4587 34.9741 29.4587 35.345C29.4587 35.8422 29.2612 36.3192 28.9096 36.6708C28.5579 37.0224 28.081 37.22 27.5837 37.22Z" fill="#00A9ED"/>
<path d="M35.325 2.21997H5.675C4.63433 2.22096 3.63657 2.63481 2.9007 3.37067C2.16484 4.10654 1.75099 5.1043 1.75 6.14497V25.795C1.75099 26.8357 2.16484 27.8334 2.9007 28.5693C3.63657 29.3052 4.63433 29.719 5.675 29.72H35.325C36.3657 29.719 37.3634 29.3052 38.0993 28.5693C38.8352 27.8334 39.249 26.8357 39.25 25.795V6.14497C39.249 5.1043 38.8352 4.10654 38.0993 3.37067C37.3634 2.63481 36.3657 2.22096 35.325 2.21997ZM36.75 25.795C36.7497 26.1728 36.5994 26.5351 36.3323 26.8023C36.0651 27.0694 35.7028 27.2197 35.325 27.22H5.675C5.29717 27.2197 4.93491 27.0694 4.66774 26.8023C4.40057 26.5351 4.25033 26.1728 4.25 25.795V6.14497C4.25033 5.76714 4.40057 5.40488 4.66774 5.13771C4.93491 4.87054 5.29717 4.7203 5.675 4.71997H35.325C35.7028 4.7203 36.0651 4.87054 36.3323 5.13771C36.5994 5.40488 36.7497 5.76714 36.75 6.14497V25.795Z" fill="#00A9ED"/>
<path d="M27.4125 14.91L17.4125 8.65997C17.2233 8.54171 17.0059 8.47626 16.7828 8.4704C16.5598 8.46454 16.3392 8.5185 16.144 8.62667C15.9489 8.73483 15.7862 8.89327 15.673 9.08552C15.5597 9.27778 15.5 9.49684 15.5 9.71997V22.22C15.5 22.4431 15.5597 22.6622 15.673 22.8545C15.7862 23.0467 15.9489 23.2051 16.144 23.3133C16.3392 23.4215 16.5598 23.4754 16.7828 23.4696C17.0059 23.4637 17.2233 23.3983 17.4125 23.28L27.4125 17.03C27.5934 16.9179 27.7427 16.7615 27.8462 16.5755C27.9497 16.3896 28.004 16.1803 28.004 15.9675C28.004 15.7547 27.9497 15.5454 27.8462 15.3595C27.7427 15.1735 27.5934 15.0171 27.4125 14.905V14.91ZM18 19.97V11.97L24.3913 15.97L18 19.97Z" fill="#00A9ED"/>
</svg>
